<svg xmlns="http://www.w3.org/2000/svg" version="1.1" xmlns:xlink="http://www.w3.org/1999/xlink" xmlns:svgjs="http://svgjs.com/svgjs" width="1700" height="560" preserveAspectRatio="none" viewBox="0 0 1700 560"><g mask="url(&quot;#SvgjsMask1413&quot;)" fill="none"><rect width="1700" height="560" x="0" y="0" fill="rgba(105, 56, 109, 1)"></rect><path d="M828.35 574.87C959.41 543.67 920.82 192.49 1207.74 192.18 1494.66 191.87 1767.93 424.7 1966.51 427.38" stroke="rgba(157, 162, 167, 0.58)" stroke-width="2"></path><path d="M408 663.95C616.4 643.89 748.02 205.66 1107.42 203.4 1466.83 201.14 1629.05 331.66 1806.85 332.2" stroke="rgba(157, 162, 167, 0.58)" stroke-width="2"></path><path d="M437.22 629.6C628.47 612.75 757.93 218.89 1085.77 218.36 1413.61 217.83 1563.26 433.85 1734.32 436.76" stroke="rgba(157, 162, 167, 0.58)" stroke-width="2"></path><path d="M694.54 661.89C806.36 647.8 752.85 408.74 1056.78 393.5 1360.7 378.26 1587.13 118.31 1781.25 113.5" stroke="rgba(157, 162, 167, 0.58)" stroke-width="2"></path><path d="M352.55 601.62C488.86 595.18 593.62 360.86 842.14 360.22 1090.66 359.58 1086.93 430.22 1331.73 430.22 1576.52 430.22 1697.68 360.4 1821.32 360.22" stroke="rgba(157, 162, 167, 0.58)" stroke-width="2"></path></g><defs><mask id="SvgjsMask1413"><rect width="1700" height="560" fill="#ffffff"></rect></mask></defs></svg>